<svg xmlns="http://www.w3.org/2000/svg" width="200" height="400" fill="none"><path fill="#fff" fill-opacity=".05" d="M201.056 32.225c88.367 0 160.86 67.814 168.211 154.244H264.164c-6.256-29.723-32.61-52.093-64.203-52.093-31.593 0-57.947 22.37-64.203 52.093H32.845c7.429-86.43 79.921-154.244 168.211-154.244Zm35.112 154.244A38.797 38.797 0 0 1 238.592 200h.079c0 4.771-.861 9.308-2.425 13.531-5.474 14.705-19.628 25.108-36.207 25.108s-30.733-10.481-36.207-25.108A38.797 38.797 0 0 1 161.408 200h-.079c0-4.771.861-9.308 2.425-13.531 5.474-14.705 19.628-25.108 36.207-25.108s30.733 10.481 36.207 25.108Zm-37.302 181.384c-88.367 0-160.86-67.814-168.211-154.243h105.103c6.256 29.722 32.61 52.092 64.203 52.092 31.593 0 57.947-22.37 64.203-52.092h102.991c-7.429 86.351-79.921 154.243-168.289 154.243ZM199.961 0C89.541 0 0 89.558 0 200s89.54 200 199.961 200C310.381 400 400 310.52 400 200S310.459 0 199.961 0Z"/></svg>