<svg xmlns="http://www.w3.org/2000/svg" width="16" height="16" fill="none"><path fill="#fff" fill-rule="evenodd" d="M10.694.016a.037.037 0 0 1 .05-.01l1.137.796c.017.012.02.035.009.051l-1.581 2.258a9.69 9.69 0 0 1 1.292.511s-1.28 2.202-3.451 2.202c-2.171 0-3.714-2.052-3.714-2.052s.547-.35 1.358-.649L4.059 1.056a.037.037 0 0 1 .005-.052L5.126.113a.037.037 0 0 1 .052.004l2.196 2.618a5.1 5.1 0 0 1 .573-.034c.278 0 .555.022.826.057l1.92-2.742Zm.43 5.912c.579-.414 1.455-1.494 1.455-1.494s2.24 1.775 2.24 5.538c0 3.763-3.872 6.028-3.872 6.028s-1.85-1.868-2.304-4.237c-.454-2.368.672-4.997.672-4.997s1.229-.424 1.808-.838Zm-6.24 0c-.58-.414-1.457-1.494-1.457-1.494s-2.24 1.775-2.24 5.538C1.188 13.735 5.06 16 5.06 16s1.85-1.868 2.304-4.237c.454-2.368-.672-4.997-.672-4.997s-1.228-.424-1.808-.838Z" clip-rule="evenodd"/></svg>