<svg xmlns="http://www.w3.org/2000/svg" width="48" height="48" fill="none"><path fill="#fff" d="M31.42 16.58a2.002 2.002 0 0 0-2.84 0L24 21.18l-4.58-4.6a2.008 2.008 0 1 0-2.84 2.84l4.6 4.58-4.6 4.58a1.998 1.998 0 0 0 0 2.84 1.999 1.999 0 0 0 2.84 0l4.58-4.6 4.58 4.6a1.999 1.999 0 0 0 2.84 0 2 2 0 0 0 0-2.84L26.82 24l4.6-4.58a2 2 0 0 0 0-2.84Zm6.72-6.72A20 20 0 1 0 9.86 38.14a19.999 19.999 0 0 0 32.762-21.788A20 20 0 0 0 38.14 9.86Zm-2.82 25.46A16 16 0 1 1 40 24a15.901 15.901 0 0 1-4.68 11.32Z"/></svg>