<svg xmlns="http://www.w3.org/2000/svg" width="16" height="16" fill="none"><path fill="#fff" fill-rule="evenodd" d="M8.772 7.965c.108-.066.2-.205.275-.359.976.4 1.662 1.342 1.662 2.442 0 1.461-1.21 2.645-2.705 2.645a2.74 2.74 0 0 1-1.632-.535 6.39 6.39 0 0 1-.371-.194c-.156-.086-.258-.142-.322-.133-.186.025-.132.197-.083.353.034.106.065.204.017.245-.05.043-.214-.113-.405-.295-.26-.248-.57-.544-.717-.455-.116.07-.004.261.134.495l.01.017c.058.099.126.2.187.291.125.187.226.337.176.363-.061.03-.486-.256-.843-.654-.139-.153-.272-.32-.397-.475-.272-.338-.498-.62-.626-.587-.153.04-.037.356.133.66.08.142.173.287.254.412.126.195.222.343.187.361-.046.024-.458-.377-.738-.883a9.526 9.526 0 0 1-.419-.902c-.122-.292-.213-.51-.274-.531-.208-.076-.208.35-.125.964.011.08.028.164.048.25C3.01 14.087 5.504 16 8.455 16c3.61 0 6.537-2.862 6.537-6.393 0-3.36-2.651-6.115-6.02-6.373a2.96 2.96 0 0 1 .087-.472s.595-1.439.626-1.746L9.693.95C9.73.618 9.799 0 9.267 0c-.284 0-.415.211-.566.452-.058.093-.12.19-.192.282-.527.658-1.414 1.48-1.916 1.918-1.063.926-2.105 1.686-2.713 2.13a8.083 8.083 0 0 0-.52.394c-.436.425-1.996 3.24-1.996 3.24s-.505.902-.325 1.085c.179.183.611.142.611.142s5.811-1.334 6.331-1.439c.14-.028.24-.044.315-.057.206-.034.243-.04.476-.182ZM4.664 6.252c-.312.296-.83 1.004-.83 1.004s.962.06 1.491-.444c.53-.503.408-1.361.408-1.361s-.758.505-1.07.801Z" clip-rule="evenodd"/></svg>