<svg xmlns="http://www.w3.org/2000/svg" width="16" height="16" fill="none"><g clip-path="url(#a)"><path fill="#fff" fill-rule="evenodd" d="m3.21 12.687 2.567-.744 2.216 4.053c.003.005.01.005.013 0l2.217-4.053 2.566.744a.008.008 0 0 0 .01-.01l-.745-2.515 3.941-2.156a.008.008 0 0 0 0-.013L12.023 5.82l.777-2.625a.008.008 0 0 0-.01-.01l-2.626.762L8.006.004a.008.008 0 0 0-.013 0L5.837 3.947 3.21 3.185a.008.008 0 0 0-.01.01l.778 2.625L.004 7.993a.008.008 0 0 0 0 .013l3.941 2.156-.744 2.515a.008.008 0 0 0 .01.01Zm1.992-4.66 1.818.995.994 1.818c.003.005.01.005.013 0l.995-1.818 1.818-.995a.008.008 0 0 0 0-.013L9.022 7.02l-.995-1.818a.008.008 0 0 0-.013 0L7.02 7.02l-1.818.994a.008.008 0 0 0 0 .013Z" clip-rule="evenodd"/></g><defs><clipPath id="a"><path fill="#fff" d="M0 0h16v16H0z"/></clipPath></defs></svg>