<svg xmlns="http://www.w3.org/2000/svg" width="16" height="16" fill="none"><g clip-path="url(#a)"><path fill="#fff" fill-rule="evenodd" d="M2.757 1.33A1.766 1.766 0 0 1 5.947.8h.515a1.765 1.765 0 0 1 2.886.533h.432a1.765 1.765 0 0 1 2.555.8h1.174c.01 0 .02.003.028.008a1.765 1.765 0 0 1 1.928 1.757V9.286l-.003.096C15.356 13.054 12.055 16 7.998 16 3.874 16 .53 12.956.53 9.2c0-1.813.78-3.46 2.049-4.679-.003 1.767.026 3.594.164 3.563.369-.084.08-5.558.013-6.754Z" clip-rule="evenodd"/></g><defs><clipPath id="a"><path fill="#fff" d="M0 0h16v16H0z"/></clipPath></defs></svg>