<svg xmlns="http://www.w3.org/2000/svg" width="16" height="16" fill="none"><path fill="#fff" fill-rule="evenodd" d="M11.008 12.356c.198-.723-.186-2.209-.186-2.209s-.278 1.21-.713 1.658a2.297 2.297 0 0 1-1.478.716c.533-.259.9-.799.9-1.422 0-.876-.722-1.586-1.613-1.586s-1.613.71-1.613 1.586c0 .239.053.466.15.669-.557-.444-.645-1.156-.645-1.156s-.622 2.584 1.092 3.799c1.715 1.215 5.074.17 5.074.17s-4.807 3.383-8.369-.298c-3.068-3.171-.8-7.345-.8-7.345s-.098.387-.098.836c0 .45.243.792.243.792S3.68 7.033 4.245 6.41c.536-.59 1.207-1.068 1.787-1.481.446-.318.838-.598 1.072-.86 1.29-1.442.5-4.069.5-4.069s1.454 1.282 1.86 2.937c.154.631.055 1.35-.034 1.992-.145 1.042-.262 1.884.782 1.83 1.687-.089.221-2.69.221-2.69s3.827 2.012 3.541 5.53c-.286 3.517-4.183 4.316-4.183 4.316s1.02-.836 1.217-1.559Z" clip-rule="evenodd"/></svg>