<svg xmlns="http://www.w3.org/2000/svg" width="16" height="16" fill="none"><path fill="#fff" fill-rule="evenodd" d="M5.585 14.93c2.344 0 4.35-1.303 5.179-3.15.01-.023-3.326.867-3.22.552.048-.14 2.093-.887 3.583-1.758.856-.501 1.25-1.562 1.25-1.562s-1.443.701-2.172.879c-1.47.358-2.763.32-2.763.282 0-.08 2.148-.489 5.134-2.309 1.404-.855 1.786-2.33 1.786-2.33s-1.544.92-2.478 1.224c-2.213.72-4.234.937-4.234.84 0-.21 1.778-.698 3.663-1.611.98-.475 1.829-1.095 2.812-1.785C15.735 3.072 16 1.062 16 1.062s-1.587 1.024-2.362 1.364C10.442 3.83 7.62 4.565 5.585 4.724 2.513 4.964 0 7.108 0 9.891c0 2.782 2.5 5.038 5.585 5.038Z" clip-rule="evenodd"/></svg>