<svg xmlns="http://www.w3.org/2000/svg" width="16" height="16" fill="none"><g clip-path="url(#a)"><path fill="#fff" fill-rule="evenodd" d="M11.53 15.945c-1.444.073-3.096.073-3.657 0C3.493 15.368 0 12.166 0 7.838 0 3.509 3.582 0 8 0s8 3.509 8 7.838a7.72 7.72 0 0 1-2.048 5.237c-.346.377.129.64.61.91.473.263.953.53.674.912-.307.42-1.974.959-3.706 1.048ZM6.875 6.858c0 .676-.56 1.224-1.25 1.224s-1.25-.548-1.25-1.224c0-.454.252-.85.626-1.061.021.59.506 1.06 1.101 1.06h.773Zm3.874-1.061a1.102 1.102 0 0 1-1.101 1.06h-.773c0 .677.56 1.225 1.25 1.225s1.25-.548 1.25-1.224c0-.454-.252-.85-.626-1.061Z" clip-rule="evenodd"/></g><defs><clipPath id="a"><path fill="#fff" d="M0 0h16v16H0z"/></clipPath></defs></svg>