<svg xmlns="http://www.w3.org/2000/svg" width="48" height="48" fill="none"><path fill="#fff" d="M24 10.777c-7.364 0-13.333 5.97-13.333 13.334 0 5.897 3.832 10.891 9.14 12.65.646.1.893-.288.893-.633 0-.317-.017-1.367-.017-2.484-3.35.617-4.216-.816-4.483-1.566a4.85 4.85 0 0 0-1.367-1.884c-.466-.25-1.133-.866-.016-.883a2.669 2.669 0 0 1 2.054 1.374 2.85 2.85 0 0 0 3.879 1.093c.058-.678.36-1.312.85-1.784-2.967-.333-6.067-1.483-6.067-6.583a5.189 5.189 0 0 1 1.367-3.583 4.792 4.792 0 0 1 .133-3.534s1.117-.35 3.667 1.367c2.182-.6 4.485-.6 6.667 0 2.55-1.733 3.666-1.367 3.666-1.367a4.791 4.791 0 0 1 .134 3.534 5.159 5.159 0 0 1 1.366 3.583c0 5.117-3.116 6.25-6.083 6.583.644.653.972 1.553.9 2.467 0 1.783-.017 3.217-.017 3.667a.659.659 0 0 0 .857.634c5.309-1.758 9.143-6.753 9.143-12.651 0-7.364-5.97-13.334-13.333-13.334Z"/></svg>