<svg xmlns="http://www.w3.org/2000/svg" width="16" height="16" fill="none"><g clip-path="url(#a)"><path fill="#fff" fill-rule="evenodd" d="M3.044 13.77a7.257 7.257 0 0 1-.163-10.42C5.715.516 14.745.326 14.745.326s1.232 10.452-1.601 13.286a7.259 7.259 0 0 1-9.25.845l2.278-2.796 3.642-.786-2.973-.297 1.89-1.924 2.15-.472-1.7-.503 1.7-3.068-2.419 2.713-.934-1.318.329 2.176-1.685 1.9-.781-2.403v3.196L3.044 13.77Z" clip-rule="evenodd"/></g><defs><clipPath id="a"><path fill="#fff" d="M0 0h16v16H0z"/></clipPath></defs></svg>