<svg xmlns="http://www.w3.org/2000/svg" width="16" height="16" fill="none"><g clip-path="url(#a)"><path fill="#fff" fill-rule="evenodd" d="M3.524 13.742a.006.006 0 0 1-.006-.008L7.603 2.192c0-.003.003-.005.006-.005h4.36c.003 0 .006.002.006.005L16 13.734a.006.006 0 0 1-.006.008H3.524Zm-3.518.045A.006.006 0 0 1 0 13.78l3.042-8.121c.001-.002.004-.004.006-.004h2.643c.005 0 .008.004.006.008l-2.941 8.121a.006.006 0 0 1-.006.005H.006Z" clip-rule="evenodd"/></g><defs><clipPath id="a"><path fill="#fff" d="M0 0h16v16H0z"/></clipPath></defs></svg>