<svg xmlns="http://www.w3.org/2000/svg" width="48" height="48" fill="none"><path fill="#fff" d="M35.29 10.667H12.71a1.935 1.935 0 0 0-1.96 1.91v22.847a1.935 1.935 0 0 0 1.96 1.91h22.58a1.935 1.935 0 0 0 1.96-1.91V12.576a1.935 1.935 0 0 0-1.96-1.91ZM18.785 32.989h-4.003V20.948h4.003v12.041Zm-1.673-13.683a2.09 2.09 0 0 1-.328-.002h-.026a2.086 2.086 0 1 1 .052-4.16 2.087 2.087 0 1 1 .302 4.162ZM33.216 32.99h-4.002v-6.44c0-1.62-.58-2.724-2.028-2.724a2.19 2.19 0 0 0-2.054 1.464 2.747 2.747 0 0 0-.131.976v6.724h-4.002c0-.003.052-10.911 0-12.04h4.002v1.706a3.971 3.971 0 0 1 3.607-1.99c2.633 0 4.608 1.722 4.608 5.42v6.904Z"/></svg>