<svg xmlns="http://www.w3.org/2000/svg" width="153" height="56" fill="none"><g fill="#fff" clip-path="url(#a)"><path d="m84.908 0-2.554 1.318-10.509 12.028 1.847 2.18-2.006 1.066-8.609-7.625-.003.005-2.559 1.386-.492.93.044-2.087-13.996 4.463v.007l-2.58 1.382.367 7.47 2.414-.609.15 1.659c-2.038-.29-4.216.001-6.284.873-.899.391-1.737.871-2.509 1.43.525-2.317.4-4.602-.484-6.639a11.958 11.958 0 0 0-5.137-5.652c-1.58-1.05-3.464-1.706-5.435-1.928-4.843-.845-10.659.022-16.383 2.456-2.104.896-4.066 1.913-5.837 3.038l-2.237 1.417.001.003L0 20.718l6.828 11.505 2.569-1.101L20.387 56l10.44-3.362 2.5-1.677.07-.022-.651-2.51-1.541-5.905c.82 1.597 2.047 2.77 2.047 2.77a9.476 9.476 0 0 0 3.986 2.313c2.918.838 6.211.292 9.038-1.508a18.233 18.233 0 0 0 2.054-1.527l.35 3.851 9.836-1.452 2.627-1.374h.004l-.01-6.207 18.072 8.935 2.568-1.383-.013-.007v-8.482l.004.02c2.113-.313 3.927-1.094 5.71-2.164l.094-.058-.777 4.712 11.138 1.779 2.139-1.15 1.363 2.514L103.451 43l.401 3.314 12.653 2.24 2.528-1.388-.102-.03.11.02-.488-3.086c.873-.099 1.781-.216 2.563-.494.311-.106.748-.28 1.216-.486l-.502 4.444 8.388 1.205.081 3.41 8.703 2.769 2.59-1.37-.007-.007.019.007L153 19.264l-11.867-2.879-.004.018-1.86.99-.305-1.506-13.944-3.063v-.001l-2.575 1.387.086 7.049a11.699 11.699 0 0 0-4.396.764c-1.02.39-1.967.901-2.825 1.523l-2.104-13.254h-9.227l-.002-.01-.018.01h-.027l-.003.015-2.547 1.369-.025.14h-7.441l-.014.084.001-.096-2.533 1.39-.528 3.207c-2.266-2.12-5.222-3.28-8.443-3.347l8.287-4.446L84.907.001l-.006.007.007-.008Zm-.446 3.823 3.056 4.143-8.736 4.323-.604-.915 6.284-7.55Zm21.914 9.035h4.723l1.96 12.716c-2.494 2.836-3.706 6.648-2.873 10.136.645 2.703 2.31 4.88 4.696 6.153.24.12.489.24.746.343l.249 1.648-6.965-1.061-1.854-12.262-2.622 6.764-3.927-8.454h-.045l-1.551 9.79-6.545-1.136.92-5.463c.247-.232.49-.464.73-.71l2.12-2.18-2.061-1.843 2.19-13.01h6.604l1.652 9.006 1.853-10.437Zm-42.38.173 6.125 5.822-8.565 9.006 8.047 3.177c.898 1.7 2.27 3.145 3.99 4.21 1.663 1.024 3.568 1.63 5.584 1.829l.001 5.76-20.471-10.22.018 5.397-.149.112.15.074.017 5.125-5.296.72-.369-4.413c1.635-2.798 2.233-6.096 1.38-9.12a9.57 9.57 0 0 0-2.51-4.261l-.76-9-2.377.616-.105-2.275 8.504-2.528.19 3.192-.012.022.013-.004.33 5.545 6.265-8.786ZM22.79 14.076c1.16.002 2.266.097 3.307.28 1.474.166 3.033.6 4.4 1.505 1.873 1.053 3.307 2.553 4.134 4.463 2.016 4.65-1.352 11.343-8.018 15.45l3.485 13.348-5.642 1.8L12.88 25.115c-.63.33-1.793.884-2.86 1.407l-4.192-7.068c1.667-1.063 3.495-2.005 5.44-2.825 4.093-1.737 8.045-2.56 11.522-2.554ZM81.983 15.7c3.275-.039 6.093 1.299 7.98 3.61l-8.525 9.057c.578.108 1.497-.043 2.176-.205 1.222-.297 2.12-.807 2.859-1.42l-.023.03c.04-.036.078-.067.118-.1l-.004-.005c.45-.385.844-.809 1.217-1.247l3.407 3.06 1.032.93c-.447.462-.917.898-1.393 1.296-1.965 1.622-4.204 2.68-7.163 3.393-.646.148-1.28.256-1.9.31-4.696.46-8.636-1.691-10.131-5.182a7.522 7.522 0 0 1-.438-1.308c-.692-2.94-.101-5.568 1.354-7.627a9.27 9.27 0 0 1 1.475-1.641c1.37-1.22 3.12-2.108 5.11-2.585a12.826 12.826 0 0 1 2.849-.365Zm45.51.348 9.097 1.825 3.058 14.477 3.137-12.98 6.92 1.527-9.746 29.457-4.054-1.205-.795-.615-.413-17.428-2.434 13.739-5.28-.841.378-3.956c3.448-2.908 5.276-7.495 4.274-11.652-.44-1.84-1.388-3.443-2.725-4.662l.446-4.665-1.996-.53.133-2.491Zm-5.26 7.522c1.714-.027 3.296.454 4.548 1.353a6.772 6.772 0 0 1 1.831 1.956c.365.61.649 1.28.821 2.014.614 2.538-.117 5.256-1.721 7.446a11.057 11.057 0 0 1-2.49 2.459c-.722.512-1.516.948-2.37 1.263-1.686.64-3.362.774-4.856.478a7.25 7.25 0 0 1-2.817-1.197c-1.314-.949-2.281-2.35-2.708-4.109-.497-2.113-.039-4.37 1.1-6.346a11.416 11.416 0 0 1 2.158-2.657 10.763 10.763 0 0 1 3.316-2.041 9.583 9.583 0 0 1 3.188-.62Zm-53.877.787a12.67 12.67 0 0 0 .193 3.672L65.7 26.932l2.655-2.575Zm-23.299 1.198c1.615.016 3.112.475 4.337 1.305 1.345.91 2.37 2.279 2.848 3.994.06.182.1.373.14.56.137.653.193 1.323.166 1.983-.064 1.988-.796 3.98-2.02 5.664a11.295 11.295 0 0 1-4.705 3.797c-4.894 2.07-9.788 0-11.096-4.638-1.267-4.485 1.68-9.823 6.423-11.862 1.325-.559 2.651-.815 3.907-.803Zm3.26 18.877v.009l-.04.014.04-.023Z"/><path d="M30.17 25.196c-.51-2.734-4.092-4.24-7.643-2.308l.916 3.13 1.44 4.623.657 2.106c2.664-1.71 5.341-3.764 4.63-7.551ZM26.643 29.4c-.387-1.263-1.238-3.991-1.238-3.991.004.012-.168-.584-.37-1.266.752-.134 1.475-.08 2.07.206.333.158.918.527 1.046 1.226.294 1.572-.237 2.694-1.508 3.825ZM83.903 20.858a4.873 4.873 0 0 0-6.881.303 4.846 4.846 0 0 0 .31 6.868c.16.156.336.283.512.409l6.403-7.238a7.052 7.052 0 0 0-.344-.342Zm-6.046 5.091a3.131 3.131 0 0 1 .436-3.626c.901-.98 2.28-1.258 3.457-.805l-3.893 4.431ZM125.337 27.37c.054.215.082.427.075.653-.059 1.352-1.332 2.396-2.851 2.326-1.517-.053-2.708-1.202-2.649-2.55.051-1.265 1.18-2.266 2.574-2.33a4.495 4.495 0 0 0-.83-.1c-2.539-.11-4.615 1.685-4.703 3.92-.097 2.39 1.822 4.34 4.322 4.448 2.543.101 4.618-1.7 4.719-4.08a3.911 3.911 0 0 0-.657-2.287M48.292 30.1c0 1.358-1.237 2.446-2.753 2.446-1.52 0-2.752-1.089-2.752-2.446 0-1.266 1.085-2.31 2.474-2.43a4.652 4.652 0 0 0-.829-.076c-2.54 0-4.542 1.88-4.542 4.118 0 2.389 2.003 4.262 4.501 4.262 2.541 0 4.543-1.874 4.543-4.262 0-.827-.274-1.606-.744-2.248.063.194.102.408.102.636"/></g><defs><clipPath id="a"><path fill="#fff" d="M0 0h153v56H0z"/></clipPath></defs></svg>