<svg xmlns="http://www.w3.org/2000/svg" width="56" height="56" fill="none"><path fill="#fff" fill-opacity=".25" d="M28.148 4.511c12.371 0 22.52 9.494 23.55 21.594H36.982c-.876-4.161-4.565-7.293-8.988-7.293-4.424 0-8.113 3.132-8.989 7.293H4.598c1.04-12.1 11.19-21.594 23.55-21.594Zm4.915 21.594c.22.59.34 1.226.34 1.894h.01c0 .668-.12 1.303-.338 1.894a5.403 5.403 0 0 1-5.07 3.515 5.419 5.419 0 0 1-5.069-3.515A5.431 5.431 0 0 1 22.598 28h-.01c0-.668.12-1.303.338-1.894a5.403 5.403 0 0 1 5.07-3.515 5.419 5.419 0 0 1 5.068 3.515Zm-5.222 25.392c-12.371 0-22.52-9.493-23.55-21.593h14.715c.876 4.161 4.566 7.293 8.988 7.293 4.424 0 8.113-3.132 8.989-7.293h14.419c-1.04 12.089-11.19 21.593-23.56 21.593ZM27.994 0C12.536 0 0 12.538 0 27.999 0 43.46 12.536 55.998 27.994 55.998c15.46 0 28.006-12.527 28.006-28C56 12.528 43.464 0 27.994 0Z"/></svg>