<svg xmlns="http://www.w3.org/2000/svg" width="16" height="16" fill="none"><g clip-path="url(#a)"><path fill="#fff" fill-rule="evenodd" d="M14.248 13.287s-2.018 1.618-6.033.948c-3.046-.508-4.67-3.865-4.67-5.67 0-4.28 3.167-5.253 5.308-5.253s3.538 2.088 3.538 3.704-1.143 3.03-2.922 3.03c-1.779 0-2.306-1.25-2.306-2.397 0-1.149.93-1.553 1.776-1.553.848 0 1.138.723 1.138 1.345s-.483.844-.885.844-.442-.203-.596-.416c-.154-.213.196-1.02-.38-1.02-.577 0-.685.927-.685.927s.21 1.792 1.938 1.761c1.728-.03 2.547-1.366 2.309-2.689-.238-1.322-1.521-2.727-3.774-2.443-2.252.284-3.172 2.56-2.766 4.991.405 2.432 3.318 3.842 5.61 3.335 2.29-.507 4.572-2.166 4.572-6.37 0-4.205-3.642-6.733-7.984-6.316C3.093.46.398 4.258.57 8.819c.173 4.561 4.501 7.046 8.161 7.174 3.66.128 5.904-1.99 5.904-1.99s.504-.45.306-.802c-.197-.352-.693.086-.693.086Z" clip-rule="evenodd"/></g><defs><clipPath id="a"><path fill="#fff" d="M0 0h16v16H0z"/></clipPath></defs></svg>