<svg xmlns="http://www.w3.org/2000/svg" width="16" height="16" fill="none"><g clip-path="url(#a)"><path fill="#fff" fill-rule="evenodd" d="M12.348 7.649a.006.006 0 0 1-.001-.005l1.02-5.952c.001-.002.004-.004.006-.004h.324c.002 0 .004.001.005.003l2.3 7.282c0 .002 0 .005-.002.006l-1.696 1.324a.006.006 0 0 1-.008-.001l-1.948-2.653Zm-12.38 3.945c0 .003.002.005.005.006l3.495 1.143.005-.001 7.813-5.394a.006.006 0 0 0 .002-.004l.838-5.621a.006.006 0 0 0-.006-.007H5.2l-.004.002L-.03 8.022a.006.006 0 0 0-.001.004v3.568Zm4.956 1.44 3.819 1.25h.005l4.546-3.261a.006.006 0 0 0 .002-.008L11.592 8.48a.006.006 0 0 0-.008-.002l-6.66 4.557Z" clip-rule="evenodd"/></g><defs><clipPath id="a"><path fill="#fff" d="M0 0h16v16H0z"/></clipPath></defs></svg>