<svg xmlns="http://www.w3.org/2000/svg" width="24" height="25" fill="none"><path fill="#fff" d="M19 4.002h-1.45a3.08 3.08 0 0 0-.55-1 3 3 0 0 0-2.25-1H9.27a3 3 0 0 0-2.27 1 3.08 3.08 0 0 0-.57 1H5a3 3 0 0 0-3 3v12a3 3 0 0 0 3 3h14a3 3 0 0 0 3-3v-12a3 3 0 0 0-3-3Zm-10.48.34a1 1 0 0 1 .75-.34h5.46a1 1 0 0 1 .75.34 1 1 0 0 1 .25.78l-.5 4a1 1 0 0 1-1 .88h-1.64l1.14-2.4a1 1 0 0 0-1.8-.86l-1.56 3.26h-.6a1 1 0 0 1-1-.88l-.5-4a1 1 0 0 1 .25-.78ZM20 19.002a1 1 0 0 1-1 1H5a1 1 0 0 1-1-1v-12a1 1 0 0 1 1-1h1.37l.42 3.37a3 3 0 0 0 3 2.63h4.46a3 3 0 0 0 3-2.63l.38-3.37H19a1 1 0 0 1 1 1v12Zm-6-3h-4a1 1 0 1 0 0 2h4a1 1 0 0 0 0-2Z"/></svg>